<svg xmlns="http://www.w3.org/2000/svg" xmlns:xlink="http://www.w3.org/1999/xlink" width="1080" zoomAndPan="magnify" viewBox="0 0 810 809.999993" height="1080" preserveAspectRatio="xMidYMid meet" version="1.0"><defs><clipPath id="493f04928b"><path d="M 73 411 L 393 411 L 393 475 L 73 475 Z M 73 411 " clip-rule="nonzero"/></clipPath><clipPath id="88c9c15864"><path d="M 73.003906 435.398438 L 389.34375 411.605469 L 392.3125 451.113281 L 75.976562 474.902344 Z M 73.003906 435.398438 " clip-rule="nonzero"/></clipPath><clipPath id="69ac9c2e7d"><path d="M 73.003906 435.398438 L 389.34375 411.605469 L 392.3125 451.113281 L 75.976562 474.902344 Z M 73.003906 435.398438 " clip-rule="nonzero"/></clipPath><clipPath id="5cdc848eb2"><path d="M 408 405 L 739 405 L 739 485 L 408 485 Z M 408 405 " clip-rule="nonzero"/></clipPath><clipPath id="67ae0d59b1"><path d="M 413.21875 405 L 738.519531 440.808594 L 733.738281 484.238281 L 408.441406 448.429688 Z M 413.21875 405 " clip-rule="nonzero"/></clipPath><clipPath id="a571525b6f"><path d="M 413.21875 405 L 738.519531 440.808594 L 733.738281 484.238281 L 408.441406 448.429688 Z M 413.21875 405 " clip-rule="nonzero"/></clipPath><clipPath id="5257132468"><path d="M 24 445 L 339 445 L 339 518 L 24 518 Z M 24 445 " clip-rule="nonzero"/></clipPath><clipPath id="8ab12ece7e"><path d="M 22.667969 475.328125 L 336.164062 442.929688 L 340.800781 487.796875 L 27.300781 520.195312 Z M 22.667969 475.328125 " clip-rule="nonzero"/></clipPath><clipPath id="9d9306501b"><path d="M 313.730469 445.25 C 326.121094 443.96875 337.203125 452.976562 338.484375 465.363281 C 339.761719 477.753906 330.757812 488.835938 318.367188 490.117188 L 49.734375 517.875 C 37.347656 519.15625 26.265625 510.152344 24.984375 497.761719 C 23.703125 485.371094 32.710938 474.289062 45.097656 473.011719 Z M 313.730469 445.25 " clip-rule="nonzero"/></clipPath><clipPath id="8d659ee133"><path d="M 472 444 L 792 444 L 792 519 L 472 519 Z M 472 444 " clip-rule="nonzero"/></clipPath><clipPath id="4f93589da0"><path d="M 475.34375 442.796875 L 793.609375 475.6875 L 788.972656 520.554688 L 470.707031 487.664062 Z M 475.34375 442.796875 " clip-rule="nonzero"/></clipPath><clipPath id="bf470662c6"><path d="M 771.175781 473.371094 C 783.566406 474.652344 792.574219 485.730469 791.292969 498.121094 C 790.011719 510.511719 778.929688 519.515625 766.542969 518.238281 L 493.140625 489.984375 C 480.75 488.703125 471.746094 477.621094 473.023438 465.230469 C 474.304688 452.84375 485.386719 443.835938 497.777344 445.117188 Z M 771.175781 473.371094 " clip-rule="nonzero"/></clipPath><clipPath id="6a51755896"><path d="M 313.546875 445.183594 L 496.453125 445.183594 L 496.453125 537.359375 L 313.546875 537.359375 Z M 313.546875 445.183594 " clip-rule="nonzero"/></clipPath><clipPath id="1d0e9b240b"><path d="M 374.546875 532.078125 C 383.925781 535.265625 394.585938 537.359375 405.050781 537.359375 C 415.511719 537.359375 425.582031 535.5625 434.859375 532.375 C 435.058594 532.277344 435.253906 532.277344 435.453125 532.175781 C 470.296875 519.421875 495.960938 485.738281 496.453125 449.328125 L 496.453125 445.183594 L 313.546875 445.183594 L 313.546875 449.324219 C 314.039062 485.9375 339.308594 519.621094 374.546875 532.078125 Z M 374.546875 532.078125 " clip-rule="nonzero"/></clipPath><clipPath id="02248ea56e"><path d="M 340.78125 442.796875 L 464.421875 442.796875 L 464.421875 504.625 L 340.78125 504.625 Z M 340.78125 442.796875 " clip-rule="nonzero"/></clipPath><clipPath id="e6690940d6"><path d="M 382.019531 501.054688 C 388.355469 503.210938 395.5625 504.625 402.636719 504.625 C 409.707031 504.625 416.515625 503.414062 422.785156 501.257812 C 422.921875 501.191406 423.054688 501.191406 423.1875 501.121094 C 446.742188 492.5 464.089844 469.730469 464.421875 445.128906 L 464.421875 442.796875 L 340.78125 442.796875 L 340.78125 445.128906 C 341.117188 469.867188 358.199219 492.636719 382.019531 501.054688 Z M 382.019531 501.054688 " clip-rule="nonzero"/></clipPath><clipPath id="cc1db4ced2"><path d="M 73 396 L 392 396 L 392 443 L 73 443 Z M 73 396 " clip-rule="nonzero"/></clipPath><clipPath id="e3b922815e"><path d="M 390.71875 395.519531 L 392.3125 411.945312 L 74.597656 442.796875 L 73 426.375 Z M 390.71875 395.519531 " clip-rule="nonzero"/></clipPath><clipPath id="dbc12ba882"><path d="M 391.515625 403.734375 C 391.726562 405.910156 391.0625 408.085938 389.671875 409.773438 C 388.28125 411.464844 386.277344 412.53125 384.097656 412.742188 L 82.808594 442 C 80.632812 442.210938 78.457031 441.550781 76.769531 440.160156 C 75.078125 438.769531 74.011719 436.765625 73.800781 434.585938 C 73.585938 432.40625 74.25 430.234375 75.640625 428.546875 C 77.03125 426.855469 79.035156 425.789062 81.214844 425.578125 L 382.503906 396.320312 C 384.683594 396.105469 386.855469 396.769531 388.546875 398.160156 C 390.234375 399.550781 391.304688 401.554688 391.515625 403.734375 Z M 391.515625 403.734375 " clip-rule="nonzero"/></clipPath><clipPath id="38595a09c2"><path d="M 59 426 L 88 426 L 88 481 L 59 481 Z M 59 426 " clip-rule="nonzero"/></clipPath><clipPath id="60129ff265"><path d="M 75.824219 424.410156 L 90 429.320312 L 71.695312 482.183594 L 57.523438 477.273438 Z M 75.824219 424.410156 " clip-rule="nonzero"/></clipPath><clipPath id="31376ed46b"><path d="M 82.910156 426.867188 C 84.792969 427.515625 86.335938 428.886719 87.203125 430.675781 C 88.074219 432.464844 88.195312 434.527344 87.546875 436.40625 L 74.148438 475.09375 C 73.5 476.972656 72.128906 478.519531 70.339844 479.386719 C 68.550781 480.257812 66.488281 480.378906 64.609375 479.726562 C 62.730469 479.078125 61.183594 477.707031 60.316406 475.917969 C 59.445312 474.128906 59.324219 472.066406 59.976562 470.1875 L 73.371094 431.5 C 74.019531 429.621094 75.390625 428.074219 77.179688 427.207031 C 78.972656 426.335938 81.03125 426.214844 82.910156 426.867188 Z M 82.910156 426.867188 " clip-rule="nonzero"/></clipPath><clipPath id="e59775e1d7"><path d="M 341.617188 398.085938 L 405 398.085938 L 405 455.261719 L 341.617188 455.261719 Z M 341.617188 398.085938 " clip-rule="nonzero"/></clipPath><clipPath id="97381a254e"><path d="M 349.171875 399.523438 C 372.171875 398.398438 374.308594 398.324219 376.960938 398.773438 C 379.617188 399.226562 382.417969 399.675781 384.925781 400.949219 C 387.652344 402.300781 390.746094 404.773438 392.738281 407.023438 C 394.507812 409.050781 395.390625 410.925781 396.570312 413.625 C 398.191406 417.449219 399.445312 422.925781 400.773438 428.023438 C 402.171875 433.648438 404.460938 441.75 404.679688 445.800781 C 404.828125 447.898438 404.679688 449.324219 404.238281 450.523438 C 403.941406 451.425781 403.574219 451.949219 402.910156 452.550781 C 401.953125 453.449219 400.109375 454.5 398.855469 454.875 C 397.972656 455.101562 397.308594 455.175781 396.425781 454.949219 C 395.171875 454.648438 393.179688 453.601562 392.222656 452.773438 C 391.558594 452.175781 391.265625 451.5 390.894531 450.824219 C 390.527344 450.074219 390.230469 449.398438 390.15625 448.5 C 390.085938 447.226562 390.601562 444.976562 391.117188 443.773438 C 391.484375 442.949219 391.851562 442.425781 392.589844 441.898438 C 393.621094 441.148438 395.6875 440.25 396.941406 440.023438 C 397.824219 439.875 398.488281 439.949219 399.371094 440.25 C 400.550781 440.699219 402.394531 441.675781 403.28125 442.875 C 404.238281 444.074219 404.753906 446.101562 404.902344 447.375 C 404.976562 448.273438 404.902344 448.949219 404.53125 449.773438 C 404.015625 450.976562 402.691406 452.851562 401.730469 453.675781 C 401.066406 454.273438 400.476562 454.5 399.59375 454.726562 C 398.339844 455.023438 396.277344 455.101562 394.875 454.574219 C 393.476562 454.050781 392.441406 453.375 391.265625 451.5 C 388.167969 446.550781 386.621094 424.875 382.933594 418.949219 C 381.089844 416.023438 379.175781 414.675781 376.816406 413.773438 C 374.457031 412.875 372.171875 413.398438 368.925781 413.398438 C 363.839844 413.398438 353.519531 415.199219 349.171875 414.523438 C 346.960938 414.148438 345.558594 413.699219 344.304688 412.574219 C 343.125 411.449219 342.167969 409.425781 341.875 407.925781 C 341.652344 406.648438 341.800781 405.449219 342.316406 404.324219 C 342.90625 402.898438 344.527344 401.101562 345.78125 400.351562 C 346.8125 399.675781 349.171875 399.523438 349.171875 399.523438 " clip-rule="nonzero"/></clipPath><clipPath id="d35fbbbbdc"><path d="M 384.519531 398.152344 L 393.941406 398.152344 L 393.941406 411.992188 L 384.519531 411.992188 Z M 384.519531 398.152344 " clip-rule="nonzero"/></clipPath><clipPath id="7a793b01e8"><path d="M 387.824219 400.648438 C 393.300781 407.925781 393.898438 409.050781 393.824219 409.949219 C 393.75 410.625 393.300781 411.523438 392.773438 411.75 C 392.175781 411.976562 390.976562 411.675781 390.375 411.074219 C 389.550781 410.175781 390 407.699219 389.25 406.125 C 388.425781 404.398438 385.726562 402.523438 385.5 401.101562 C 385.351562 400.125 385.800781 398.773438 386.398438 398.476562 C 386.925781 398.175781 388.351562 398.550781 388.648438 399.074219 C 389.023438 399.601562 388.726562 401.324219 388.273438 401.773438 C 387.898438 402.148438 387 402.148438 386.550781 402 C 386.023438 401.851562 385.5 401.175781 385.351562 400.648438 C 385.199219 400.125 385.425781 399.375 385.800781 399 C 386.175781 398.625 386.851562 398.25 387.449219 398.398438 C 388.5 398.625 390.226562 400.351562 391.199219 401.925781 C 392.476562 403.949219 393.824219 408.449219 393.824219 409.949219 C 393.824219 410.550781 393.75 410.925781 393.449219 411.226562 C 393.148438 411.601562 392.398438 411.976562 391.875 411.976562 C 391.351562 411.976562 390.75 411.523438 390.375 411.074219 C 389.851562 410.398438 389.851562 409.125 389.25 408.074219 C 388.351562 406.5 385.125 404.175781 384.75 402.675781 C 384.523438 401.773438 384.824219 400.648438 385.351562 400.273438 C 385.875 399.898438 387.824219 400.648438 387.824219 400.648438 " clip-rule="nonzero"/></clipPath><clipPath id="a74630dc57"><path d="M 388.273438 403.023438 L 395.328125 403.023438 L 395.328125 414.863281 L 388.273438 414.863281 Z M 388.273438 403.023438 " clip-rule="nonzero"/></clipPath><clipPath id="41e62dc1ea"><path d="M 391.648438 413.476562 C 388.425781 404.699219 389.023438 403.574219 389.625 403.273438 C 390.074219 403.050781 390.976562 403.273438 391.351562 403.574219 C 391.800781 403.875 392.175781 404.699219 392.101562 405.226562 C 392.023438 405.824219 391.199219 406.800781 390.601562 406.949219 C 390.074219 407.101562 389.25 406.800781 388.875 406.425781 C 388.5 406.050781 388.273438 405.226562 388.351562 404.773438 C 388.425781 404.398438 388.648438 403.949219 388.949219 403.726562 C 389.25 403.425781 389.699219 403.199219 390.074219 403.199219 C 390.523438 403.199219 391.125 403.351562 391.648438 403.875 C 392.851562 405.074219 395.101562 410.625 395.25 412.425781 C 395.324219 413.175781 395.175781 413.773438 394.875 414.148438 C 394.648438 414.523438 394.199219 414.824219 393.75 414.824219 C 393.148438 414.824219 391.648438 413.476562 391.648438 413.476562 " clip-rule="nonzero"/></clipPath><clipPath id="de98c2ea0a"><path d="M 721 425 L 751 425 L 751 480 L 721 480 Z M 721 425 " clip-rule="nonzero"/></clipPath><clipPath id="c5f7e68d3b"><path d="M 719.953125 428.699219 L 734.128906 423.792969 L 752.433594 476.65625 L 738.261719 481.5625 Z M 719.953125 428.699219 " clip-rule="nonzero"/></clipPath><clipPath id="1559c2fe6d"><path d="M 727.042969 426.246094 C 728.921875 425.597656 730.984375 425.71875 732.773438 426.585938 C 734.5625 427.457031 735.933594 429 736.582031 430.878906 L 749.980469 469.566406 C 750.632812 471.445312 750.507812 473.507812 749.640625 475.296875 C 748.769531 477.085938 747.226562 478.457031 745.347656 479.109375 C 743.46875 479.757812 741.40625 479.636719 739.617188 478.769531 C 737.828125 477.898438 736.457031 476.355469 735.804688 474.476562 L 722.410156 435.789062 C 721.757812 433.910156 721.878906 431.847656 722.75 430.058594 C 723.617188 428.269531 725.164062 426.898438 727.042969 426.246094 Z M 727.042969 426.246094 " clip-rule="nonzero"/></clipPath><clipPath id="a99c6a0c01"><path d="M 417 396 L 736 396 L 736 443 L 417 443 Z M 417 396 " clip-rule="nonzero"/></clipPath><clipPath id="eac2e4d207"><path d="M 416.871094 412.65625 L 418.453125 396.230469 L 736.195312 426.828125 L 734.613281 443.253906 Z M 416.871094 412.65625 " clip-rule="nonzero"/></clipPath><clipPath id="3d60277953"><path d="M 417.664062 404.445312 C 417.871094 402.265625 418.9375 400.261719 420.628906 398.867188 C 422.316406 397.476562 424.488281 396.8125 426.667969 397.023438 L 727.980469 426.035156 C 730.160156 426.246094 732.164062 427.3125 733.554688 429 C 734.949219 430.6875 735.613281 432.859375 735.402344 435.039062 C 735.191406 437.21875 734.125 439.222656 732.4375 440.613281 C 730.75 442.007812 728.578125 442.671875 726.398438 442.460938 L 425.085938 413.449219 C 422.90625 413.238281 420.902344 412.171875 419.507812 410.484375 C 418.117188 408.796875 417.453125 406.621094 417.664062 404.445312 Z M 417.664062 404.445312 " clip-rule="nonzero"/></clipPath><clipPath id="92c52be6f0"><path d="M 389.65625 434.101562 L 413.578125 434.101562 L 413.578125 458.023438 L 389.65625 458.023438 Z M 389.65625 434.101562 " clip-rule="nonzero"/></clipPath><clipPath id="164128f2e1"><path d="M 401.617188 434.101562 C 395.011719 434.101562 389.65625 439.457031 389.65625 446.0625 C 389.65625 452.667969 395.011719 458.023438 401.617188 458.023438 C 408.222656 458.023438 413.578125 452.667969 413.578125 446.0625 C 413.578125 439.457031 408.222656 434.101562 401.617188 434.101562 Z M 401.617188 434.101562 " clip-rule="nonzero"/></clipPath><clipPath id="ec89815c69"><path d="M 397.554688 397 L 431.636719 397 L 431.636719 453 L 397.554688 453 Z M 397.554688 397 " clip-rule="nonzero"/></clipPath><clipPath id="0b418326ad"><path d="M 424.5 412.050781 C 421.199219 413.101562 420.675781 416.550781 419.550781 420 C 417.375 426.75 414.601562 445.5 411.449219 450 C 410.175781 451.726562 408.675781 452.25 407.476562 452.699219 C 406.648438 453 405.976562 453.074219 405.074219 452.925781 C 403.800781 452.773438 401.773438 452.175781 400.574219 451.199219 C 399.449219 450.226562 398.398438 448.574219 398.101562 447.074219 C 397.800781 445.574219 397.949219 443.625 398.625 442.273438 C 399.300781 440.925781 400.800781 439.5 401.925781 438.824219 C 402.675781 438.300781 403.351562 438.148438 404.25 438.074219 C 405.523438 438 407.625 438.148438 408.976562 438.824219 C 410.324219 439.5 411.601562 440.925781 412.273438 442.273438 C 412.949219 443.625 412.949219 445.800781 412.800781 447.074219 C 412.648438 447.976562 412.273438 448.648438 411.898438 449.324219 C 411.449219 450 411.074219 450.675781 410.324219 451.199219 C 409.273438 451.949219 407.324219 452.851562 405.824219 452.925781 C 404.324219 453 402.523438 452.476562 401.25 451.648438 C 399.976562 450.824219 398.851562 449.476562 398.324219 447.824219 C 397.648438 445.574219 398.25 442.726562 398.925781 438.824219 C 400.199219 431.398438 404.925781 413.101562 408.148438 406.800781 C 409.726562 403.726562 410.925781 402.300781 412.949219 400.726562 C 415.199219 399.074219 418.648438 397.726562 421.199219 397.273438 C 423.226562 396.976562 425.25 396.976562 426.824219 397.648438 C 428.398438 398.324219 429.898438 399.976562 430.648438 401.324219 C 431.25 402.449219 431.550781 403.574219 431.398438 404.851562 C 431.25 406.351562 430.425781 408.523438 429.300781 409.726562 C 428.175781 410.925781 424.5 412.050781 424.5 412.050781 " clip-rule="nonzero"/></clipPath><clipPath id="05a1bb7b79"><path d="M 410.460938 441.414062 L 413.792969 441.414062 L 413.792969 448.609375 L 410.460938 448.609375 Z M 410.460938 441.414062 " clip-rule="nonzero"/></clipPath><clipPath id="8dd4096038"><path d="M 413.101562 442.273438 C 413.773438 445.050781 413.476562 447.074219 412.875 447.75 C 412.5 448.199219 411.75 448.574219 411.375 448.425781 C 411 448.273438 410.550781 447.300781 410.699219 446.925781 C 410.773438 446.625 411.523438 446.25 411.898438 446.25 C 412.199219 446.25 412.648438 446.550781 412.800781 446.851562 C 412.949219 447.148438 412.726562 447.898438 412.5 448.199219 C 412.273438 448.425781 411.824219 448.574219 411.523438 448.5 C 411.148438 448.425781 410.699219 447.898438 410.625 447.449219 C 410.476562 446.773438 411.449219 445.726562 411.523438 444.898438 C 411.601562 444.074219 410.773438 443.101562 410.925781 442.5 C 411 442.050781 411.375 441.601562 411.75 441.523438 C 412.125 441.449219 413.101562 442.273438 413.101562 442.273438 " clip-rule="nonzero"/></clipPath><clipPath id="4921164ae1"><path d="M 411 442.085938 L 414.078125 442.085938 L 414.078125 448.460938 L 411 448.460938 Z M 411 442.085938 " clip-rule="nonzero"/></clipPath><clipPath id="4c3f527b29"><path d="M 414.074219 443.476562 C 412.574219 448.425781 411.675781 448.273438 411.375 447.976562 C 411.148438 447.75 411.074219 446.925781 411.300781 446.625 C 411.523438 446.324219 412.199219 446.101562 412.574219 446.175781 C 412.875 446.25 413.25 446.699219 413.324219 447 C 413.398438 447.375 413.101562 448.050781 412.800781 448.273438 C 412.574219 448.425781 412.050781 448.425781 411.75 448.273438 C 411.449219 448.050781 411.226562 447.601562 411.148438 447.074219 C 411 446.101562 411.300781 443.550781 411.898438 442.800781 C 412.273438 442.351562 413.175781 442.125 413.550781 442.273438 C 413.851562 442.425781 414.074219 443.476562 414.074219 443.476562 " clip-rule="nonzero"/></clipPath><clipPath id="a3464e8d6b"><path d="M 410 443.144531 L 413.957031 443.144531 L 413.957031 448.605469 L 410 448.605469 Z M 410 443.144531 " clip-rule="nonzero"/></clipPath><clipPath id="cca075cd79"><path d="M 410.023438 446.925781 C 411.824219 445.125 412.726562 445.800781 412.726562 445.949219 C 412.726562 446.023438 411.675781 446.175781 411.449219 445.949219 C 411.226562 445.726562 411.226562 444.824219 411.375 444.375 C 411.523438 444 411.824219 443.476562 412.125 443.324219 C 412.425781 443.175781 412.949219 443.25 413.175781 443.476562 C 413.625 443.925781 413.625 446.625 413.175781 447.074219 C 412.875 447.375 412.125 447.300781 411.824219 447.074219 C 411.449219 446.699219 411.675781 444.675781 411.523438 444.675781 C 411.449219 444.675781 411.148438 446.101562 411.226562 446.175781 C 411.300781 446.25 411.675781 445.199219 412.050781 445.125 C 412.425781 445.050781 413.25 445.425781 413.398438 445.726562 C 413.550781 446.101562 413.023438 447.148438 412.648438 447.300781 C 412.351562 447.449219 411.824219 447.300781 411.601562 447.074219 C 411.375 446.851562 411.226562 446.023438 411.375 445.726562 C 411.523438 445.425781 412.199219 445.050781 412.574219 445.125 C 412.875 445.125 413.324219 445.5 413.398438 445.800781 C 413.476562 446.175781 412.648438 447.375 412.351562 447.375 C 411.976562 447.375 411.226562 446.023438 411.375 445.648438 C 411.449219 445.351562 412.199219 445.050781 412.574219 445.125 C 412.949219 445.199219 413.25 446.324219 413.476562 446.25 C 413.699219 446.175781 413.773438 444.824219 413.773438 444.824219 C 413.773438 444.824219 413.550781 446.699219 413.175781 447.074219 C 412.875 447.300781 412.425781 447.375 412.125 447.226562 C 411.675781 446.925781 411.226562 445.050781 411.375 444.375 C 411.449219 443.925781 411.824219 443.398438 412.125 443.324219 C 412.5 443.25 413.398438 443.625 413.625 444.148438 C 413.925781 444.898438 413.101562 447.601562 412.5 447.824219 C 412.125 447.976562 411 447.074219 411 447 C 411 447 412.273438 447.226562 412.273438 447.449219 C 412.273438 447.675781 410.773438 448.574219 410.398438 448.425781 C 410.101562 448.273438 410.023438 446.925781 410.023438 446.925781 " clip-rule="nonzero"/></clipPath><clipPath id="0dda3f3a64"><path d="M 411.199219 436.457031 L 414.53125 436.457031 L 414.53125 448.832031 L 411.199219 448.832031 Z M 411.199219 436.457031 " clip-rule="nonzero"/></clipPath><clipPath id="224fb41f04"><path d="M 411.300781 447.300781 C 411.976562 437.023438 412.5 436.574219 412.875 436.574219 C 413.25 436.574219 413.851562 437.101562 413.925781 437.476562 C 414 437.773438 413.851562 438.300781 413.625 438.523438 C 413.324219 438.75 412.574219 438.898438 412.273438 438.75 C 411.976562 438.601562 411.675781 438.148438 411.675781 437.851562 C 411.675781 437.476562 412.351562 436.648438 412.726562 436.574219 C 413.101562 436.5 413.550781 436.875 413.851562 437.398438 C 414.523438 438.675781 414.226562 443.773438 413.925781 445.800781 C 413.699219 447 413.476562 448.273438 412.949219 448.574219 C 412.574219 448.800781 411.675781 448.574219 411.449219 448.351562 C 411.226562 448.125 411.300781 447.300781 411.300781 447.300781 " clip-rule="nonzero"/></clipPath><clipPath id="92d2eb11ee"><path d="M 453.300781 255 L 559 255 L 559 369.484375 L 453.300781 369.484375 Z M 453.300781 255 " clip-rule="nonzero"/></clipPath><clipPath id="2d2efa9c3d"><path d="M 520 237.484375 L 559 237.484375 L 559 279 L 520 279 Z M 520 237.484375 " clip-rule="nonzero"/></clipPath><clipPath id="2a48faa777"><path d="M 552 280 L 573.285156 280 L 573.285156 304 L 552 304 Z M 552 280 " clip-rule="nonzero"/></clipPath><clipPath id="db4fa5f377"><path d="M 366 209.3125 L 418 209.3125 L 418 274 L 366 274 Z M 366 209.3125 " clip-rule="nonzero"/></clipPath><clipPath id="4c4cb9dc3a"><path d="M 327.277344 267 L 379 267 L 379 333 L 327.277344 333 Z M 327.277344 267 " clip-rule="nonzero"/></clipPath><clipPath id="7ca22a2efc"><path d="M 327.277344 209.3125 L 379 209.3125 L 379 274 L 327.277344 274 Z M 327.277344 209.3125 " clip-rule="nonzero"/></clipPath><clipPath id="d2b87478e3"><path d="M 449 210 L 482.527344 210 L 482.527344 254 L 449 254 Z M 449 210 " clip-rule="nonzero"/></clipPath><clipPath id="a6b3db1538"><path d="M 449 249 L 482.527344 249 L 482.527344 292 L 449 292 Z M 449 249 " clip-rule="nonzero"/></clipPath><clipPath id="f377259ff4"><path d="M 397 327 L 432 327 L 432 369.8125 L 397 369.8125 Z M 397 327 " clip-rule="nonzero"/></clipPath><clipPath id="2e855b3b44"><path d="M 423 327 L 458 327 L 458 369.8125 L 423 369.8125 Z M 423 327 " clip-rule="nonzero"/></clipPath><clipPath id="59d28aa4af"><path d="M 300.566406 181.019531 L 341 181.019531 L 341 221.519531 L 300.566406 221.519531 Z M 300.566406 181.019531 " clip-rule="nonzero"/></clipPath><clipPath id="e1df7825e4"><path d="M 320.683594 331.210938 L 347.683594 331.210938 L 347.683594 358.210938 L 320.683594 358.210938 Z M 320.683594 331.210938 " clip-rule="nonzero"/></clipPath><clipPath id="ceb7981876"><path d="M 232.6875 248.59375 L 315.1875 248.59375 L 315.1875 331.09375 L 232.6875 331.09375 Z M 232.6875 248.59375 " clip-rule="nonzero"/></clipPath></defs><g clip-path="url(#493f04928b)"><g clip-path="url(#88c9c15864)"><g clip-path="url(#69ac9c2e7d)"><path fill="#dad5b7" d="M 73.003906 435.398438 L 389.34375 411.605469 L 392.316406 451.113281 L 75.976562 474.902344 Z M 73.003906 435.398438 " fill-opacity="1" fill-rule="nonzero"/></g></g></g><g clip-path="url(#5cdc848eb2)"><g clip-path="url(#67ae0d59b1)"><g clip-path="url(#a571525b6f)"><path fill="#dad5b7" d="M 413.21875 405 L 738.519531 440.808594 L 733.738281 484.238281 L 408.441406 448.429688 Z M 413.21875 405 " fill-opacity="1" fill-rule="nonzero"/></g></g></g><g clip-path="url(#5257132468)"><g clip-path="url(#8ab12ece7e)"><g clip-path="url(#9d9306501b)"><path fill="#665e52" d="M 22.667969 475.328125 L 336.164062 442.929688 L 340.800781 487.796875 L 27.300781 520.195312 Z M 22.667969 475.328125 " fill-opacity="1" fill-rule="nonzero"/></g></g></g><g clip-path="url(#8d659ee133)"><g clip-path="url(#4f93589da0)"><g clip-path="url(#bf470662c6)"><path fill="#665e52" d="M 475.34375 442.796875 L 793.609375 475.6875 L 788.972656 520.554688 L 470.707031 487.664062 Z M 475.34375 442.796875 " fill-opacity="1" fill-rule="nonzero"/></g></g></g><g clip-path="url(#6a51755896)"><g clip-path="url(#1d0e9b240b)"><path fill="#665e52" d="M 313.546875 445.183594 L 496.453125 445.183594 L 496.453125 537.359375 L 313.546875 537.359375 Z M 313.546875 445.183594 " fill-opacity="1" fill-rule="nonzero"/></g></g><g clip-path="url(#02248ea56e)"><g clip-path="url(#e6690940d6)"><path fill="#dad5b7" d="M 340.78125 442.796875 L 464.421875 442.796875 L 464.421875 504.625 L 340.78125 504.625 Z M 340.78125 442.796875 " fill-opacity="1" fill-rule="nonzero"/></g></g><g clip-path="url(#cc1db4ced2)"><g clip-path="url(#e3b922815e)"><g clip-path="url(#dbc12ba882)"><path fill="#665e52" d="M 390.71875 395.519531 L 392.3125 411.945312 L 74.597656 442.796875 L 73 426.375 Z M 390.71875 395.519531 " fill-opacity="1" fill-rule="nonzero"/></g></g></g><g clip-path="url(#38595a09c2)"><g clip-path="url(#60129ff265)"><g clip-path="url(#31376ed46b)"><path fill="#665e52" d="M 75.824219 424.410156 L 90 429.320312 L 71.695312 482.183594 L 57.523438 477.273438 Z M 75.824219 424.410156 " fill-opacity="1" fill-rule="nonzero"/></g></g></g><g clip-path="url(#e59775e1d7)"><g clip-path="url(#97381a254e)"><path fill="#665e52" d="M 338.925781 395.398438 L 407.851562 395.398438 L 407.851562 457.949219 L 338.925781 457.949219 Z M 338.925781 395.398438 " fill-opacity="1" fill-rule="nonzero"/></g></g><g clip-path="url(#d35fbbbbdc)"><g clip-path="url(#7a793b01e8)"><path fill="#665e52" d="M 381.75 395.398438 L 396.824219 395.398438 L 396.824219 414.976562 L 381.75 414.976562 Z M 381.75 395.398438 " fill-opacity="1" fill-rule="nonzero"/></g></g><g clip-path="url(#a74630dc57)"><g clip-path="url(#41e62dc1ea)"><path fill="#665e52" d="M 385.351562 400.199219 L 398.25 400.199219 L 398.25 417.824219 L 385.351562 417.824219 Z M 385.351562 400.199219 " fill-opacity="1" fill-rule="nonzero"/></g></g><g clip-path="url(#de98c2ea0a)"><g clip-path="url(#c5f7e68d3b)"><g clip-path="url(#1559c2fe6d)"><path fill="#665e52" d="M 719.953125 428.699219 L 734.128906 423.792969 L 752.433594 476.65625 L 738.261719 481.5625 Z M 719.953125 428.699219 " fill-opacity="1" fill-rule="nonzero"/></g></g></g><g clip-path="url(#a99c6a0c01)"><g clip-path="url(#eac2e4d207)"><g clip-path="url(#3d60277953)"><path fill="#665e52" d="M 416.871094 412.65625 L 418.453125 396.230469 L 736.195312 426.828125 L 734.613281 443.253906 Z M 416.871094 412.65625 " fill-opacity="1" fill-rule="nonzero"/></g></g></g><g clip-path="url(#92c52be6f0)"><g clip-path="url(#164128f2e1)"><path fill="#665e52" d="M 389.65625 434.101562 L 413.578125 434.101562 L 413.578125 458.023438 L 389.65625 458.023438 Z M 389.65625 434.101562 " fill-opacity="1" fill-rule="nonzero"/></g></g><g clip-path="url(#ec89815c69)"><g clip-path="url(#0b418326ad)"><path fill="#665e52" d="M 395.101562 394.273438 L 434.398438 394.273438 L 434.398438 455.925781 L 395.101562 455.925781 Z M 395.101562 394.273438 " fill-opacity="1" fill-rule="nonzero"/></g></g><g clip-path="url(#05a1bb7b79)"><g clip-path="url(#8dd4096038)"><path fill="#665e52" d="M 407.625 438.523438 L 416.699219 438.523438 L 416.699219 451.5 L 407.625 451.5 Z M 407.625 438.523438 " fill-opacity="1" fill-rule="nonzero"/></g></g><g clip-path="url(#4921164ae1)"><g clip-path="url(#4c3f527b29)"><path fill="#665e52" d="M 408.148438 439.273438 L 417.074219 439.273438 L 417.074219 451.273438 L 408.148438 451.273438 Z M 408.148438 439.273438 " fill-opacity="1" fill-rule="nonzero"/></g></g><g clip-path="url(#a3464e8d6b)"><g clip-path="url(#cca075cd79)"><path fill="#665e52" d="M 407.023438 440.324219 L 416.773438 440.324219 L 416.773438 451.425781 L 407.023438 451.425781 Z M 407.023438 440.324219 " fill-opacity="1" fill-rule="nonzero"/></g></g><g clip-path="url(#0dda3f3a64)"><g clip-path="url(#224fb41f04)"><path fill="#665e52" d="M 408.300781 433.574219 L 416.925781 433.574219 L 416.925781 451.574219 L 408.300781 451.574219 Z M 408.300781 433.574219 " fill-opacity="1" fill-rule="nonzero"/></g></g><g clip-path="url(#92d2eb11ee)"><path fill="#7d1a0c" d="M 506.164062 369.566406 C 506.8125 355.390625 509.199219 336.242188 518.304688 326.425781 C 527.792969 316.191406 544.28125 315.550781 558.796875 313.9375 C 545.933594 312.511719 528.703125 312.628906 519.628906 304.253906 C 508.015625 293.53125 506.226562 272.539062 506.226562 255.589844 M 506.226562 255.589844 C 506.226562 271.367188 506.238281 292.707031 495.902344 303.261719 C 486.460938 312.902344 467.320312 312.382812 453.316406 313.9375 C 467.148438 315.472656 486.855469 316.824219 496.265625 326.273438 C 506.207031 336.253906 505.484375 354.691406 506.164062 369.566406 " fill-opacity="1" fill-rule="evenodd"/></g><g clip-path="url(#2d2efa9c3d)"><path fill="#7d1a0c" d="M 539.585938 278.4375 C 539.820312 273.34375 540.679688 266.464844 543.949219 262.9375 C 547.359375 259.261719 553.28125 259.027344 558.5 258.449219 C 553.875 257.9375 547.6875 257.980469 544.425781 254.96875 C 540.253906 251.117188 539.609375 243.574219 539.609375 237.484375 M 539.609375 237.484375 C 539.609375 243.152344 539.613281 250.820312 535.898438 254.613281 C 532.507812 258.078125 525.628906 257.890625 520.597656 258.449219 C 525.570312 259 532.648438 259.488281 536.03125 262.882812 C 539.601562 266.46875 539.34375 273.09375 539.585938 278.4375 " fill-opacity="1" fill-rule="evenodd"/></g><g clip-path="url(#2a48faa777)"><path fill="#7d1a0c" d="M 562.894531 303.773438 C 563.023438 300.925781 563.5 297.082031 565.328125 295.109375 C 567.234375 293.054688 570.542969 292.925781 573.457031 292.605469 C 570.875 292.316406 567.417969 292.339844 565.59375 290.660156 C 563.265625 288.507812 562.90625 284.292969 562.90625 280.890625 M 562.90625 280.890625 C 562.90625 284.058594 562.90625 288.34375 560.832031 290.460938 C 558.9375 292.398438 555.09375 292.292969 552.285156 292.605469 C 555.058594 292.914062 559.015625 293.183594 560.90625 295.082031 C 562.902344 297.085938 562.757812 300.785156 562.894531 303.773438 " fill-opacity="1" fill-rule="evenodd"/></g><g clip-path="url(#db4fa5f377)"><path fill="#7d1a0c" d="M 370.902344 209.339844 C 371.859375 212.308594 371.9375 220.832031 377.128906 236.050781 C 380.085938 244.71875 383.839844 250.964844 387.277344 255.140625 C 394.585938 264.007812 404.773438 268.902344 417.632812 269.789062 L 366.78125 273.878906 Z M 370.902344 209.339844 " fill-opacity="1" fill-rule="nonzero"/></g><g clip-path="url(#4c4cb9dc3a)"><path fill="#7d1a0c" d="M 374.003906 332.527344 C 373.046875 329.554688 372.96875 321.035156 367.773438 305.816406 C 364.816406 297.148438 361.0625 290.898438 357.625 286.726562 C 350.320312 277.855469 340.128906 272.964844 327.273438 272.074219 L 378.121094 267.984375 Z M 374.003906 332.527344 " fill-opacity="1" fill-rule="nonzero"/></g><g clip-path="url(#7ca22a2efc)"><path fill="#7d1a0c" d="M 370.894531 209.339844 C 370.089844 212.355469 370.441406 220.871094 366.019531 236.328125 C 363.503906 245.136719 360.070312 251.566406 356.847656 255.910156 C 350 265.132812 340.070312 270.535156 327.269531 272.070312 L 378.265625 273.589844 Z M 370.894531 209.339844 " fill-opacity="1" fill-rule="nonzero"/></g><path fill="#7d1a0c" d="M 374.007812 332.527344 C 374.8125 329.511719 374.464844 320.996094 378.882812 305.535156 C 381.398438 296.730469 384.832031 290.300781 388.054688 285.957031 C 394.90625 276.730469 404.835938 271.332031 417.632812 269.796875 L 366.640625 268.273438 Z M 374.007812 332.527344 " fill-opacity="1" fill-rule="nonzero"/><g clip-path="url(#d2b87478e3)"><path fill="#7d1a0c" d="M 452.492188 210.792969 C 453.097656 212.753906 453.078125 218.351562 456.363281 228.394531 C 458.234375 234.113281 460.648438 238.25 462.875 241.023438 C 467.601562 246.910156 474.253906 250.210938 482.695312 250.902344 L 449.25 253.164062 Z M 452.492188 210.792969 " fill-opacity="1" fill-rule="nonzero"/></g><path fill="#7d1a0c" d="M 453.507812 291.757812 C 452.902344 289.796875 452.921875 284.199219 449.636719 274.15625 C 447.765625 268.4375 445.351562 264.300781 443.128906 261.527344 C 438.402344 255.640625 431.746094 252.339844 423.304688 251.652344 L 456.75 249.386719 Z M 453.507812 291.757812 " fill-opacity="1" fill-rule="nonzero"/><path fill="#7d1a0c" d="M 452.492188 210.792969 C 451.9375 212.765625 452.09375 218.367188 449.0625 228.488281 C 447.335938 234.25 445.027344 238.449219 442.875 241.273438 C 438.296875 247.277344 431.726562 250.746094 423.304688 251.648438 L 456.796875 253.070312 Z M 452.492188 210.792969 " fill-opacity="1" fill-rule="nonzero"/><g clip-path="url(#a6b3db1538)"><path fill="#7d1a0c" d="M 453.511719 291.757812 C 454.066406 289.785156 453.90625 284.1875 456.9375 274.066406 C 458.664062 268.300781 460.972656 264.101562 463.128906 261.277344 C 467.703125 255.273438 474.273438 251.808594 482.695312 250.90625 L 449.203125 249.480469 Z M 453.511719 291.757812 " fill-opacity="1" fill-rule="nonzero"/></g><path fill="#7d1a0c" d="M 426.96875 288.574219 C 427.570312 290.535156 427.554688 296.136719 430.839844 306.175781 C 432.710938 311.898438 435.121094 316.035156 437.347656 318.804688 C 442.074219 324.691406 448.726562 327.992188 457.167969 328.683594 L 423.722656 330.949219 Z M 426.96875 288.574219 " fill-opacity="1" fill-rule="nonzero"/><g clip-path="url(#f377259ff4)"><path fill="#7d1a0c" d="M 427.980469 369.539062 C 427.378906 367.582031 427.394531 361.980469 424.109375 351.9375 C 422.238281 346.21875 419.828125 342.082031 417.601562 339.3125 C 412.875 333.421875 406.222656 330.125 397.78125 329.433594 L 431.226562 327.167969 Z M 427.980469 369.539062 " fill-opacity="1" fill-rule="nonzero"/></g><path fill="#7d1a0c" d="M 426.964844 288.574219 C 426.410156 290.550781 426.570312 296.148438 423.539062 306.269531 C 421.808594 312.035156 419.5 316.230469 417.347656 319.054688 C 412.769531 325.0625 406.199219 328.527344 397.78125 329.429688 L 431.269531 330.851562 Z M 426.964844 288.574219 " fill-opacity="1" fill-rule="nonzero"/><g clip-path="url(#2e855b3b44)"><path fill="#7d1a0c" d="M 427.984375 369.539062 C 428.539062 367.566406 428.378906 361.96875 431.410156 351.847656 C 433.140625 346.082031 435.449219 341.886719 437.601562 339.058594 C 442.179688 333.054688 448.75 329.589844 457.167969 328.6875 L 423.679688 327.261719 Z M 427.984375 369.539062 " fill-opacity="1" fill-rule="nonzero"/></g><g clip-path="url(#59d28aa4af)"><path fill="#7d1a0c" d="M 340.796875 201.132812 C 327.386719 204.835938 324.382812 207.835938 320.683594 221.25 C 316.980469 207.835938 313.980469 204.835938 300.566406 201.132812 C 313.980469 197.433594 316.980469 194.433594 320.683594 181.019531 C 324.382812 194.433594 327.386719 197.433594 340.796875 201.132812 Z M 340.796875 201.132812 " fill-opacity="1" fill-rule="nonzero"/></g><g clip-path="url(#e1df7825e4)"><path fill="#7d1a0c" d="M 347.929688 344.832031 C 338.847656 347.339844 336.8125 349.371094 334.308594 358.457031 C 331.800781 349.371094 329.765625 347.339844 320.683594 344.832031 C 329.765625 342.324219 331.800781 340.292969 334.308594 331.210938 C 336.8125 340.292969 338.847656 342.324219 347.929688 344.832031 Z M 347.929688 344.832031 " fill-opacity="1" fill-rule="nonzero"/></g><g clip-path="url(#ceb7981876)"><path fill="#7d1a0c" d="M 315.292969 289.898438 C 287.75 297.496094 281.589844 303.660156 273.988281 331.199219 C 266.390625 303.660156 260.226562 297.496094 232.6875 289.898438 C 260.226562 282.296875 266.390625 276.136719 273.988281 248.59375 C 281.589844 276.136719 287.75 282.296875 315.292969 289.898438 Z M 315.292969 289.898438 " fill-opacity="1" fill-rule="nonzero"/></g></svg>