<?xml version="1.0" standalone="no"?>
<!DOCTYPE svg PUBLIC "-//W3C//DTD SVG 20010904//EN"
 "http://www.w3.org/TR/2001/REC-SVG-20010904/DTD/svg10.dtd">
<svg version="1.0" xmlns="http://www.w3.org/2000/svg"
 width="512.000000pt" height="512.000000pt" viewBox="0 0 512.000000 512.000000"
 preserveAspectRatio="xMidYMid meet">

<g transform="translate(0.000000,512.000000) scale(0.100000,-0.100000)"
fill="#000000" stroke="none">
<path d="M1800 3063 c-367 -73 -661 -123 -1059 -179 -134 -18 -246 -35 -247
-37 -2 -2 -15 -47 -29 -101 -13 -54 -40 -126 -58 -160 l-34 -61 -135 -11
c-154 -13 -188 -26 -219 -86 -23 -44 -24 -77 -5 -121 24 -56 59 -80 124 -85
31 -2 449 26 927 63 l870 66 20 -28 c139 -190 325 -274 605 -274 280 0 466 84
605 274 l20 28 870 -66 c479 -37 896 -65 927 -63 65 5 100 29 124 85 19 44 18
77 -5 121 -30 58 -65 73 -209 86 l-125 11 -34 61 c-18 34 -45 106 -58 160 -14
54 -27 99 -29 101 -1 2 -113 19 -247 37 -331 47 -583 88 -839 139 -202 39
-226 42 -385 42 -147 0 -181 -3 -249 -23 -109 -31 -227 -95 -297 -160 l-59
-54 -62 57 c-68 62 -201 132 -303 160 -60 17 -348 30 -405 18z m358 -177 c76
-21 170 -67 228 -114 55 -43 104 -125 104 -172 0 -53 66 -94 112 -69 33 17 46
38 53 85 13 89 96 174 227 233 160 72 315 75 633 13 275 -54 344 -65 692 -117
161 -24 296 -46 302 -49 5 -4 13 -21 16 -38 4 -18 16 -52 26 -75 18 -42 18
-43 0 -43 -10 0 -348 25 -751 55 l-732 55 -43 -19 c-38 -17 -47 -28 -78 -93
-50 -105 -117 -159 -231 -187 -68 -17 -258 -15 -324 3 -103 28 -180 89 -210
167 -23 61 -53 96 -95 114 -33 13 -100 10 -768 -40 -402 -30 -735 -55 -740
-55 -4 0 0 19 10 43 10 23 22 57 26 75 3 17 11 35 16 38 6 3 116 21 244 40
280 40 471 72 745 124 113 21 221 41 240 43 60 9 242 -2 298 -17z"/>
</g>
</svg>
