<svg version="1.1" id="Layer_1" xmlns="http://www.w3.org/2000/svg" xmlns:xlink="http://www.w3.org/1999/xlink" x="0px" y="0px"
	 width="100%" viewBox="0 0 1080 1080" enable-background="new 0 0 1080 1080" xml:space="preserve">
<path fill="#243757" opacity="1.000000" stroke="none" 
	d="
M937.000000,1081.000000 
	C704.971985,1081.000000 472.943939,1081.000000 240.403961,1080.618164 
	C234.486435,1078.507812 229.162781,1076.438965 223.659958,1075.114136 
	C206.801056,1071.055786 191.785431,1063.065552 177.864563,1053.149048 
	C169.601669,1047.263062 161.805649,1040.501953 154.729431,1033.229614 
	C147.101700,1025.390503 139.762100,1017.019897 133.770386,1007.911743 
	C127.913765,999.009094 123.567444,989.040161 119.179138,979.260620 
	C111.777580,962.765991 108.035027,945.330139 108.031975,927.242981 
	C107.985893,654.168274 107.994461,381.093567 108.039803,108.018860 
	C108.040703,102.558670 108.420303,97.075813 108.993355,91.642570 
	C110.978569,72.820213 118.997902,56.398643 130.487274,41.795742 
	C140.167938,29.491684 151.650925,18.834476 166.056152,12.110533 
	C174.393463,8.218918 182.525772,3.476529 192.106842,2.894283 
	C193.105911,2.833570 194.037247,1.658197 195.000000,0.999999 
	C425.694702,1.000000 656.389404,1.000000 887.601318,1.385859 
	C895.206421,4.173077 902.638794,5.874331 909.296753,9.149613 
	C917.995728,13.428859 926.907349,17.981365 934.221436,24.190374 
	C943.216492,31.826382 951.278625,40.572098 957.796570,50.845772 
	C968.048706,67.005188 973.860107,84.402306 973.877014,103.248024 
	C974.070129,318.722565 974.005737,534.197327 973.986511,749.672058 
	C973.985291,763.233948 975.150452,776.920105 969.117065,789.812378 
	C965.419312,797.713989 962.825195,806.193604 958.570312,813.758362 
	C952.296326,824.912781 943.430115,834.083923 933.419312,842.097656 
	C922.600525,850.758179 910.681641,857.634216 897.438843,861.491455 
	C887.768616,864.307983 877.603271,865.424500 867.000061,867.422974 
	C867.000061,868.995728 867.000122,871.131653 867.000122,873.267639 
	C867.000061,901.930969 867.005066,930.594238 866.988770,959.257568 
	C866.987671,961.251160 867.031189,963.278687 866.704407,965.231934 
	C865.660583,971.469360 865.963745,971.976135 872.084045,971.987671 
	C888.415405,972.018555 904.748901,972.152039 921.077454,971.935486 
	C929.225342,971.827454 936.868164,973.184387 944.034851,977.140198 
	C958.758667,985.267273 969.180786,996.969727 972.913086,1013.583191 
	C974.237488,1019.478821 974.218811,1025.821899 973.902222,1031.913330 
	C972.908447,1051.032227 963.347107,1064.858521 946.838379,1074.216919 
	C943.386475,1076.173828 940.270691,1078.723511 937.000000,1081.000000 
M432.869965,141.500000 
	C432.869232,132.668060 432.655884,123.828941 432.953644,115.007072 
	C433.112640,110.296089 431.284363,109.037491 426.821106,109.057121 
	C394.993408,109.197098 363.164398,109.212921 331.336975,109.044228 
	C326.537628,109.018791 324.504974,110.559135 325.113251,115.348450 
	C325.238190,116.332344 325.129852,117.345818 325.129852,118.345657 
	C325.129791,328.145844 325.129730,537.946045 325.130798,747.746216 
	C325.130829,749.412537 325.202820,751.080872 325.143555,752.744751 
	C325.036377,755.753845 326.547546,756.870605 329.428955,756.868042 
	C362.423615,756.838806 395.418335,756.833496 428.412964,756.881165 
	C431.597931,756.885742 433.031586,755.582703 432.868958,752.402710 
	C432.783997,750.740967 432.869507,749.070801 432.869507,747.404419 
	C432.870087,545.769592 432.869843,344.134796 432.869965,141.500000 
M657.500000,972.000000 
	C690.245605,972.000000 722.991150,972.000000 755.600708,972.000000 
	C755.600708,936.587952 755.600708,901.876282 755.600708,867.000000 
	C753.374084,867.000000 751.546448,867.000000 749.718750,867.000000 
	C589.604919,867.000000 429.490997,867.069702 269.377472,866.844849 
	C258.583008,866.829712 249.070236,869.741089 240.890411,875.902161 
	C235.139999,880.233276 229.943863,885.995911 226.246796,892.165833 
	C222.403976,898.578979 219.132645,906.083496 218.331329,913.408325 
	C216.839966,927.040833 220.370239,940.183960 229.120758,951.055176 
	C239.295166,963.695374 252.361923,971.930115 269.127838,971.943420 
	C398.251831,972.046204 527.375916,972.000000 657.500000,972.000000 
M805.697693,365.097900 
	C822.624512,360.105682 837.445068,340.644409 838.851440,322.186859 
	C839.986572,307.289185 834.195496,294.273956 827.164185,281.768555 
	C818.391235,266.165710 809.265686,250.760437 800.229858,235.306442 
	C796.329285,228.635437 792.271851,222.056183 787.825439,214.670776 
	C786.031738,217.198380 784.583252,218.940033 783.463806,220.872284 
	C779.894897,227.032562 776.509583,233.299133 772.942444,239.460510 
	C763.981689,254.937973 754.673584,270.222351 746.045776,285.882202 
	C737.845215,300.766663 733.608887,316.351379 738.980042,333.545074 
	C747.214844,359.905853 778.740967,376.541595 805.697693,365.097900 
M682.765381,229.956680 
	C680.408447,223.762863 678.781616,217.158005 675.566772,211.447128 
	C662.396301,188.051285 648.682251,164.962021 635.327148,141.668869 
	C633.247681,138.042007 631.805481,138.815262 630.153870,141.617142 
	C625.521790,149.475174 620.878540,157.329254 616.412109,165.281723 
	C606.205139,183.455032 595.407837,201.342163 586.155212,219.992935 
	C577.361450,237.718964 579.875183,255.404846 591.778564,271.108032 
	C603.617737,286.726440 619.626221,293.459137 639.335815,291.066101 
	C657.283691,288.886932 669.991638,279.382690 678.329834,263.684143 
	C683.836670,253.316315 685.010803,242.270432 682.765381,229.956680 
M721.492310,517.029419 
	C746.550964,501.272888 754.921204,474.322235 741.226318,448.093964 
	C727.892273,422.556885 712.934326,397.867828 698.692139,372.804840 
	C698.123657,371.804352 697.584961,370.786865 696.623901,369.030914 
	C694.666382,372.070038 693.548828,373.669250 692.568604,375.348572 
	C685.379761,387.664215 678.216919,399.995117 671.048706,412.322845 
	C662.727417,426.633850 653.432129,440.409363 648.020935,456.275269 
	C641.560303,475.218140 645.526733,492.020233 658.502319,506.675690 
	C673.311157,523.401733 698.703125,529.005615 721.492310,517.029419 
z"/>
<path fill="#FFFFFF" opacity="0.000000" stroke="none" 
	d="
M937.468628,1081.000000 
	C940.270691,1078.723511 943.386475,1076.173828 946.838379,1074.216919 
	C963.347107,1064.858521 972.908447,1051.032227 973.902222,1031.913330 
	C974.218811,1025.821899 974.237488,1019.478821 972.913086,1013.583191 
	C969.180786,996.969727 958.758667,985.267273 944.034851,977.140198 
	C936.868164,973.184387 929.225342,971.827454 921.077454,971.935486 
	C904.748901,972.152039 888.415405,972.018555 872.084045,971.987671 
	C865.963745,971.976135 865.660583,971.469360 866.704407,965.231934 
	C867.031189,963.278687 866.987671,961.251160 866.988770,959.257568 
	C867.005066,930.594238 867.000061,901.930969 867.000122,873.267639 
	C867.000122,871.131653 867.000061,868.995728 867.000061,867.422974 
	C877.603271,865.424500 887.768616,864.307983 897.438843,861.491455 
	C910.681641,857.634216 922.600525,850.758179 933.419312,842.097656 
	C943.430115,834.083923 952.296326,824.912781 958.570312,813.758362 
	C962.825195,806.193604 965.419312,797.713989 969.117065,789.812378 
	C975.150452,776.920105 973.985291,763.233948 973.986511,749.672058 
	C974.005737,534.197327 974.070129,318.722565 973.877014,103.248024 
	C973.860107,84.402306 968.048706,67.005188 957.796570,50.845772 
	C951.278625,40.572098 943.216492,31.826382 934.221436,24.190374 
	C926.907349,17.981365 917.995728,13.428859 909.296753,9.149613 
	C902.638794,5.874331 895.206421,4.173077 888.059265,1.385859 
	C952.313477,1.000000 1016.626953,1.000000 1080.943481,1.000001 
	C1080.946533,361.000000 1080.946533,721.000000 1080.946533,1081.000000 
	C1033.241211,1081.000000 985.589233,1081.000000 937.468628,1081.000000 
z"/>
<path fill="#FFFFFF" opacity="0.000000" stroke="none" 
	d="
M194.531342,0.999999 
	C194.037247,1.658197 193.105911,2.833570 192.106842,2.894283 
	C182.525772,3.476529 174.393463,8.218918 166.056152,12.110533 
	C151.650925,18.834476 140.167938,29.491684 130.487274,41.795742 
	C118.997902,56.398643 110.978569,72.820213 108.993355,91.642570 
	C108.420303,97.075813 108.040703,102.558670 108.039803,108.018860 
	C107.994461,381.093567 107.985893,654.168274 108.031975,927.242981 
	C108.035027,945.330139 111.777580,962.765991 119.179138,979.260620 
	C123.567444,989.040161 127.913765,999.009094 133.770386,1007.911743 
	C139.762100,1017.019897 147.101700,1025.390503 154.729431,1033.229614 
	C161.805649,1040.501953 169.601669,1047.263062 177.864563,1053.149048 
	C191.785431,1063.065552 206.801056,1071.055786 223.659958,1075.114136 
	C229.162781,1076.438965 234.486435,1078.507812 239.946014,1080.618164 
	C160.356369,1081.000000 80.712730,1081.000000 1.064184,1081.000000 
	C1.059278,721.000000 1.059278,361.000000 1.059278,1.000000 
	C65.433266,1.000000 129.747971,1.000000 194.531342,0.999999 
z"/>
<path fill="#7C1B0D" opacity="1.000000" stroke="none" 
	d="
M432.869812,142.000000 
	C432.869843,344.134796 432.870087,545.769592 432.869507,747.404419 
	C432.869507,749.070801 432.783997,750.740967 432.868958,752.402710 
	C433.031586,755.582703 431.597931,756.885742 428.412964,756.881165 
	C395.418335,756.833496 362.423615,756.838806 329.428955,756.868042 
	C326.547546,756.870605 325.036377,755.753845 325.143555,752.744751 
	C325.202820,751.080872 325.130829,749.412537 325.130798,747.746216 
	C325.129730,537.946045 325.129791,328.145844 325.129852,118.345657 
	C325.129852,117.345818 325.238190,116.332344 325.113251,115.348450 
	C324.504974,110.559135 326.537628,109.018791 331.336975,109.044228 
	C363.164398,109.212921 394.993408,109.197098 426.821106,109.057121 
	C431.284363,109.037491 433.112640,110.296089 432.953644,115.007072 
	C432.655884,123.828941 432.869232,132.668060 432.869812,142.000000 
z"/>
<path fill="#DAD5B7" opacity="1.000000" stroke="none" 
	d="
M657.000000,972.000000 
	C527.375916,972.000000 398.251831,972.046204 269.127838,971.943420 
	C252.361923,971.930115 239.295166,963.695374 229.120758,951.055176 
	C220.370239,940.183960 216.839966,927.040833 218.331329,913.408325 
	C219.132645,906.083496 222.403976,898.578979 226.246796,892.165833 
	C229.943863,885.995911 235.139999,880.233276 240.890411,875.902161 
	C249.070236,869.741089 258.583008,866.829712 269.377472,866.844849 
	C429.490997,867.069702 589.604919,867.000000 749.718750,867.000000 
	C751.546448,867.000000 753.374084,867.000000 755.600708,867.000000 
	C755.600708,901.876282 755.600708,936.587952 755.600708,972.000000 
	C722.991150,972.000000 690.245605,972.000000 657.000000,972.000000 
z"/>
<path fill="#7C1B0E" opacity="1.000000" stroke="none" 
	d="
M805.328369,365.236572 
	C778.740967,376.541595 747.214844,359.905853 738.980042,333.545074 
	C733.608887,316.351379 737.845215,300.766663 746.045776,285.882202 
	C754.673584,270.222351 763.981689,254.937973 772.942444,239.460510 
	C776.509583,233.299133 779.894897,227.032562 783.463806,220.872284 
	C784.583252,218.940033 786.031738,217.198380 787.825439,214.670776 
	C792.271851,222.056183 796.329285,228.635437 800.229858,235.306442 
	C809.265686,250.760437 818.391235,266.165710 827.164185,281.768555 
	C834.195496,294.273956 839.986572,307.289185 838.851440,322.186859 
	C837.445068,340.644409 822.624512,360.105682 805.328369,365.236572 
z"/>
<path fill="#7C1B0E" opacity="1.000000" stroke="none" 
	d="
M682.807373,230.381775 
	C685.010803,242.270432 683.836670,253.316315 678.329834,263.684143 
	C669.991638,279.382690 657.283691,288.886932 639.335815,291.066101 
	C619.626221,293.459137 603.617737,286.726440 591.778564,271.108032 
	C579.875183,255.404846 577.361450,237.718964 586.155212,219.992935 
	C595.407837,201.342163 606.205139,183.455032 616.412109,165.281723 
	C620.878540,157.329254 625.521790,149.475174 630.153870,141.617142 
	C631.805481,138.815262 633.247681,138.042007 635.327148,141.668869 
	C648.682251,164.962021 662.396301,188.051285 675.566772,211.447128 
	C678.781616,217.158005 680.408447,223.762863 682.807373,230.381775 
z"/>
<path fill="#7C1B0E" opacity="1.000000" stroke="none" 
	d="
M721.165161,517.203735 
	C698.703125,529.005615 673.311157,523.401733 658.502319,506.675690 
	C645.526733,492.020233 641.560303,475.218140 648.020935,456.275269 
	C653.432129,440.409363 662.727417,426.633850 671.048706,412.322845 
	C678.216919,399.995117 685.379761,387.664215 692.568604,375.348572 
	C693.548828,373.669250 694.666382,372.070038 696.623901,369.030914 
	C697.584961,370.786865 698.123657,371.804352 698.692139,372.804840 
	C712.934326,397.867828 727.892273,422.556885 741.226318,448.093964 
	C754.921204,474.322235 746.550964,501.272888 721.165161,517.203735 
z"/>
</svg>